<?xml version="1.0" encoding="UTF-8" standalone="no"?>
<!-- Created with Inkscape (http://www.inkscape.org/) -->

<svg
   xmlns:dc="http://purl.org/dc/elements/1.1/"
   xmlns:cc="http://creativecommons.org/ns#"
   xmlns:rdf="http://www.w3.org/1999/02/22-rdf-syntax-ns#"
   xmlns:svg="http://www.w3.org/2000/svg"
   xmlns="http://www.w3.org/2000/svg"
   xmlns:sodipodi="http://sodipodi.sourceforge.net/DTD/sodipodi-0.dtd"
   xmlns:inkscape="http://www.inkscape.org/namespaces/inkscape"
   width="164.26666"
   height="32"
   viewBox="0 0 154 30.000001"
   id="svg4351"
   version="1.1"
   inkscape:version="0.92.1 r15371"
   sodipodi:docname="logo.svg">
  <defs
     id="defs4353">
    <style
       id="current-color-scheme"
       type="text/css">
      .ColorScheme-Text {
        color:#4d4d4d;
      }
      </style>
  </defs>
  <sodipodi:namedview
     id="base"
     pagecolor="#ffffff"
     bordercolor="#666666"
     borderopacity="1.0"
     inkscape:pageopacity="0.0"
     inkscape:pageshadow="2"
     inkscape:zoom="16"
     inkscape:cx="67.822447"
     inkscape:cy="17.228635"
     inkscape:document-units="px"
     inkscape:current-layer="layer1"
     showgrid="true"
     fit-margin-top="0"
     fit-margin-left="0"
     fit-margin-right="0"
     fit-margin-bottom="0"
     units="px"
     inkscape:window-width="2560"
     inkscape:window-height="1020"
     inkscape:window-x="0"
     inkscape:window-y="30"
     inkscape:window-maximized="1">
    <inkscape:grid
       type="xygrid"
       id="grid4168"
       originx="0"
       originy="1.484375e-06"
       spacingx="1"
       spacingy="1" />
  </sodipodi:namedview>
  <metadata
     id="metadata4356">
    <rdf:RDF>
      <cc:Work
         rdf:about="">
        <dc:format>image/svg+xml</dc:format>
        <dc:type
           rdf:resource="http://purl.org/dc/dcmitype/StillImage" />
        <dc:title></dc:title>
      </cc:Work>
    </rdf:RDF>
  </metadata>
  <g
     inkscape:label="Capa 1"
     inkscape:groupmode="layer"
     id="layer1"
     transform="translate(335,-416.79077)">
    <g
       id="g4245">
      <rect
         inkscape:export-ydpi="192"
         inkscape:export-xdpi="192"
         inkscape:export-filename="C:\Users\DeViL\Downloads\nxos_logo_dark@2.png"
         y="416.79077"
         x="-335"
         height="30"
         width="154"
         id="rect4817"
         style="display:inline;opacity:1;fill:none;fill-opacity:1;stroke:none;stroke-width:2;stroke-linecap:round;stroke-linejoin:round;stroke-miterlimit:4;stroke-dasharray:none;stroke-dashoffset:0;stroke-opacity:1" />
      <path
         inkscape:connector-curvature="0"
         id="path4162"
         d="m -319.99997,418.79077 v 22 3 l 2,1 19,-12 v -1 l -14,-9 h -3 l 12.40625,7.97461 -14.40625,8.80273 v -19.66406 l -1.92773,-1.11328 H -320 Z"
         style="fill:#f5f5f5;fill-opacity:1;fill-rule:evenodd;stroke:none;stroke-width:1px;stroke-linecap:butt;stroke-linejoin:miter;stroke-opacity:1" />
      <path
         style="color:#000000;font-style:normal;font-variant:normal;font-weight:normal;font-stretch:normal;font-size:medium;line-height:normal;font-family:sans-serif;text-indent:0;text-align:start;text-decoration:none;text-decoration-line:none;text-decoration-style:solid;text-decoration-color:#000000;letter-spacing:normal;word-spacing:normal;text-transform:none;writing-mode:lr-tb;direction:ltr;baseline-shift:baseline;text-anchor:start;white-space:normal;clip-rule:nonzero;display:inline;overflow:visible;visibility:visible;opacity:1;isolation:auto;mix-blend-mode:normal;color-interpolation:sRGB;color-interpolation-filters:linearRGB;solid-color:#000000;solid-opacity:1;fill:#000000;fill-opacity:1;fill-rule:evenodd;stroke:none;stroke-width:4.00000048;stroke-linecap:round;stroke-linejoin:round;stroke-miterlimit:4;stroke-dasharray:none;stroke-dashoffset:0;stroke-opacity:1;color-rendering:auto;image-rendering:auto;shape-rendering:auto;text-rendering:auto;enable-background:accumulate"
         d="m -255.02909,425.79115 a 2.0002,1.9903412 0 0 0 -1.9707,2.01929 v 1.99001 l -2.40039,-3.18518 a 2.0002,1.9903412 0 0 0 -3.59961,1.19517 v 7.96 a 2.0002,1.9903412 0 1 0 4,0 v -1.99195 l 2.40039,3.18517 a 2.0002,1.9903412 0 0 0 3.59961,-1.19322 v -7.96 a 2.0002,1.9903412 0 0 0 -2.0293,-2.01929 z m 10.0293,0 a 5.9999993,5.9992893 0 0 0 -6,5.99929 5.9999993,5.9992893 0 0 0 6,5.99929 5.9999993,5.9992893 0 0 0 6,-5.99929 5.9999993,5.9992893 0 0 0 -6,-5.99929 z m 10.01367,0 a 2.0002,1.9956367 0 0 0 -2.01367,1.99586 v 7.98148 a 2.0002,1.9956367 0 0 0 3.96289,0.40034 l 0.24805,0.49213 a 2.0002,1.9956367 0 0 0 3.57812,0 l 0.2461,-0.49213 a 2.0002,1.9956367 0 0 0 3.96484,-0.40034 v -7.98148 a 2.0002,1.9956367 0 0 0 -3.78906,-0.89247 l -2.21094,4.41159 -2.21094,-4.41159 a 2.0002,1.9956367 0 0 0 -1.77539,-1.10339 z m 18,0 a 2.0002,1.9999016 0 0 0 -1.80273,1.10534 l -4,7.99905 a 2.0002,1.9999016 0 0 0 1.78906,2.89419 h 8 a 2.0002,1.9999016 0 0 0 1.78906,-2.89419 l -4,-7.99905 a 2.0002,1.9999016 0 0 0 -1.77539,-1.10534 z m 9.98633,0 a 2.0001998,1.9999015 0 0 0 -2,1.99976 v 7.99906 a 2.0001998,1.9999015 0 0 0 2,1.99976 h 3 a 2.0001998,1.9999015 0 0 0 0.19922,-0.01 5.9999987,5.9991041 0 0 0 5.80078,-5.98953 5.9999987,5.9991041 0 0 0 -5.85938,-5.99343 2.0001998,1.9999015 0 0 0 -0.14062,-0.006 h -3 z m -10,6.47189 0.76367,1.52716 h -1.52734 z"
         id="path4243"
         inkscape:connector-curvature="0" />
      <path
         inkscape:connector-curvature="0"
         id="path4217"
         d="M -253.0293,425.79115 A 2.0002,1.9903412 0 0 0 -255,427.81044 v 1.99001 l -2.40039,-3.18518 A 2.0002,1.9903412 0 0 0 -261,427.81044 v 7.96 a 2.0002,1.9903412 0 1 0 4,0 v -1.99195 l 2.40039,3.18517 A 2.0002,1.9903412 0 0 0 -251,435.77044 v -7.96 a 2.0002,1.9903412 0 0 0 -2.0293,-2.01929 z m 10.0293,0 a 5.9999993,5.9992893 0 0 0 -6,5.99929 5.9999993,5.9992893 0 0 0 6,5.99929 5.9999993,5.9992893 0 0 0 6,-5.99929 5.9999993,5.9992893 0 0 0 -6,-5.99929 z m 10.01367,0 A 2.0002,1.9956367 0 0 0 -235,427.78701 v 7.98148 a 2.0002,1.9956367 0 0 0 3.96289,0.40034 l 0.24805,0.49213 a 2.0002,1.9956367 0 0 0 3.57812,0 l 0.2461,-0.49213 A 2.0002,1.9956367 0 0 0 -223,435.76849 v -7.98148 a 2.0002,1.9956367 0 0 0 -3.78906,-0.89247 l -2.21094,4.41159 -2.21094,-4.41159 a 2.0002,1.9956367 0 0 0 -1.77539,-1.10339 z m 18,0 a 2.0002,1.9999016 0 0 0 -1.80273,1.10534 l -4,7.99905 A 2.0002,1.9999016 0 0 0 -219,437.78973 h 8 a 2.0002,1.9999016 0 0 0 1.78906,-2.89419 l -4,-7.99905 a 2.0002,1.9999016 0 0 0 -1.77539,-1.10534 z m 9.98633,0 a 2.0001998,1.9999015 0 0 0 -2,1.99976 v 7.99906 a 2.0001998,1.9999015 0 0 0 2,1.99976 h 3 a 2.0001998,1.9999015 0 0 0 0.19922,-0.01 5.9999987,5.9991041 0 0 0 5.80078,-5.98953 5.9999987,5.9991041 0 0 0 -5.85938,-5.99343 2.0001998,1.9999015 0 0 0 -0.14062,-0.006 h -3 z m -10,6.47189 0.76367,1.52716 h -1.52734 z"
         style="color:#000000;font-style:normal;font-variant:normal;font-weight:normal;font-stretch:normal;font-size:medium;line-height:normal;font-family:sans-serif;text-indent:0;text-align:start;text-decoration:none;text-decoration-line:none;text-decoration-style:solid;text-decoration-color:#000000;letter-spacing:normal;word-spacing:normal;text-transform:none;writing-mode:lr-tb;direction:ltr;baseline-shift:baseline;text-anchor:start;white-space:normal;clip-rule:nonzero;display:inline;overflow:visible;visibility:visible;opacity:1;isolation:auto;mix-blend-mode:normal;color-interpolation:sRGB;color-interpolation-filters:linearRGB;solid-color:#000000;solid-opacity:1;fill:#26c6da;fill-opacity:1;fill-rule:evenodd;stroke:none;stroke-width:4.00000048;stroke-linecap:round;stroke-linejoin:round;stroke-miterlimit:4;stroke-dasharray:none;stroke-dashoffset:0;stroke-opacity:1;color-rendering:auto;image-rendering:auto;shape-rendering:auto;text-rendering:auto;enable-background:accumulate" />
    </g>
    <path
       style="color:#000000;font-style:normal;font-variant:normal;font-weight:normal;font-stretch:normal;font-size:medium;line-height:normal;font-family:sans-serif;text-indent:0;text-align:start;text-decoration:none;text-decoration-line:none;text-decoration-style:solid;text-decoration-color:#000000;letter-spacing:normal;word-spacing:normal;text-transform:none;writing-mode:lr-tb;direction:ltr;baseline-shift:baseline;text-anchor:start;white-space:normal;clip-rule:nonzero;display:inline;overflow:visible;visibility:visible;opacity:1;isolation:auto;mix-blend-mode:normal;color-interpolation:sRGB;color-interpolation-filters:linearRGB;solid-color:#000000;solid-opacity:1;fill:#f5f5f5;fill-opacity:1;fill-rule:evenodd;stroke:none;stroke-width:4.00000048;stroke-linecap:round;stroke-linejoin:round;stroke-miterlimit:4;stroke-dasharray:none;stroke-dashoffset:0;stroke-opacity:1;color-rendering:auto;image-rendering:auto;shape-rendering:auto;text-rendering:auto;enable-background:accumulate"
       d="m -284.00412,426.79163 a 1.9886705,1.9903551 0 0 0 -1.38455,3.41669 l 1.5768,1.57813 -1.5768,1.57814 a 1.9886705,1.9903551 0 1 0 2.81183,2.8142 l 1.57679,-1.57814 1.5768,1.57814 a 1.9886705,1.9903551 0 1 0 2.81182,-2.8142 l -1.57679,-1.57814 1.57679,-1.57813 a 1.9886705,1.9903551 0 0 0 -1.44475,-3.41669 1.9886705,1.9903551 0 0 0 -1.36707,0.60249 l -1.5768,1.57812 -1.57679,-1.57812 a 1.9886705,1.9903551 0 0 0 -1.42728,-0.60249 z"
       id="path4252"
       inkscape:connector-curvature="0" />
  </g>
</svg>
