<?xml version="1.0" encoding="UTF-8" standalone="no"?>
<!-- Created with Inkscape (http://www.inkscape.org/) -->

<svg
   xmlns:dc="http://purl.org/dc/elements/1.1/"
   xmlns:cc="http://creativecommons.org/ns#"
   xmlns:rdf="http://www.w3.org/1999/02/22-rdf-syntax-ns#"
   xmlns:svg="http://www.w3.org/2000/svg"
   xmlns="http://www.w3.org/2000/svg"
   xmlns:sodipodi="http://sodipodi.sourceforge.net/DTD/sodipodi-0.dtd"
   xmlns:inkscape="http://www.inkscape.org/namespaces/inkscape"
   width="154"
   height="30"
   viewBox="0 0 154 30.000001"
   id="svg4351"
   version="1.1"
   inkscape:version="0.91 r13725"
   sodipodi:docname="logo.svg">
  <defs
     id="defs4353" />
  <sodipodi:namedview
     id="base"
     pagecolor="#ffffff"
     bordercolor="#666666"
     borderopacity="1.0"
     inkscape:pageopacity="0.0"
     inkscape:pageshadow="2"
     inkscape:zoom="1"
     inkscape:cx="184.85714"
     inkscape:cy="-93.571422"
     inkscape:document-units="px"
     inkscape:current-layer="layer1"
     showgrid="false"
     fit-margin-top="0"
     fit-margin-left="0"
     fit-margin-right="0"
     fit-margin-bottom="0"
     units="px"
     inkscape:window-width="2560"
     inkscape:window-height="1017"
     inkscape:window-x="-8"
     inkscape:window-y="-8"
     inkscape:window-maximized="1" />
  <metadata
     id="metadata4356">
    <rdf:RDF>
      <cc:Work
         rdf:about="">
        <dc:format>image/svg+xml</dc:format>
        <dc:type
           rdf:resource="http://purl.org/dc/dcmitype/StillImage" />
        <dc:title></dc:title>
      </cc:Work>
    </rdf:RDF>
  </metadata>
  <g
     inkscape:label="Capa 1"
     inkscape:groupmode="layer"
     id="layer1"
     transform="translate(337,-408.79078)">
    <path
       style="display:inline;opacity:1;fill:#37474f;fill-opacity:1;stroke:none;stroke-width:2;stroke-linecap:round;stroke-linejoin:round;stroke-miterlimit:4;stroke-dasharray:none;stroke-dashoffset:0;stroke-opacity:1"
       d="m -336,408.7912 c -0.554,0 -1,0.44589 -1,0.99975 l 0,12.99676 0,1.9995 0,12.99675 c 0,0.55386 0.446,0.99975 1,0.99975 0.554,0 1,-0.44589 1,-0.99975 l 0,-12.99675 12,0 0,-1.9995 -12,0 0,-12.99676 c 0,-0.55386 -0.446,-0.99975 -1,-0.99975 z m 20,0 c -0.554,0 -1,0.44589 -1,0.99975 l 0,12.99676 -0.13281,0 0.13281,0.18159 2,2.72588 0,-15.90423 c 0,-0.55386 -0.446,-0.99975 -1,-0.99975 z m 34.0293,0 a 0.99903843,0.9987145 0 0 0 -0.97071,0.6639 l -9.98242,27.9481 a 0.99903843,0.9987145 0 1 0 1.87891,0.66975 l 9.04687,-25.31204 0.01,0.0273 2.12109,0 -1.1914,-3.33316 a 0.99903843,0.9987145 0 0 0 -0.91211,-0.6639 z m 33.98437,0 a 0.99887388,0.99985024 0 1 0 0,1.9995 l 16.18555,0 1.4668,-1.9995 -17.65235,0 z m 42.98633,0 0,1.9995 0,26.99326 0,0.99975 22,0 0,-1.9995 -20,0 0,-25.99351 20,0 0,-1.9995 -22,0 z m 5,13.99651 0,1.9995 6,0 0,-1.9995 -6,0 z m -42.79492,5.9985 -6.00586,8.41587 a 0.99887388,0.99985024 0 0 0 0.81445,1.58163 l 19.97266,0 a 0.99887388,0.99985024 0 1 0 0,-1.9995 l -18.03125,0 5.70703,-7.998 -2.45703,0 z M -317,429.78596 l 0,7.998 c 0,0.55386 0.446,0.99975 1,0.99975 0.554,0 1,-0.44589 1,-0.99975 l 0,-7.998 -2,0 z m 43.63477,1.20673 -1.42579,1.94482 1.83594,5.13544 a 0.99903843,0.9987145 0 1 0 1.87891,-0.66975 l -2.28906,-6.41051 z m -13.63282,1.7808 0,1.99755 4.99805,0 0,-1.99755 -4.99805,0 z"
       id="rect4313"
       inkscape:connector-curvature="0" />
  </g>
</svg>
