<?xml version="1.0" encoding="UTF-8" standalone="no"?>
<!-- Created with Inkscape (http://www.inkscape.org/) -->

<svg
   xmlns:dc="http://purl.org/dc/elements/1.1/"
   xmlns:cc="http://creativecommons.org/ns#"
   xmlns:rdf="http://www.w3.org/1999/02/22-rdf-syntax-ns#"
   xmlns:svg="http://www.w3.org/2000/svg"
   xmlns="http://www.w3.org/2000/svg"
   xmlns:sodipodi="http://sodipodi.sourceforge.net/DTD/sodipodi-0.dtd"
   xmlns:inkscape="http://www.inkscape.org/namespaces/inkscape"
   width="154"
   height="30"
   viewBox="0 0 154 30.000001"
   id="svg4351"
   version="1.1"
   inkscape:version="0.92.3 (2405546, 2018-03-11)"
   sodipodi:docname="logo.svg">
  <defs
     id="defs4353">
    <style
       id="current-color-scheme"
       type="text/css">
      .ColorScheme-Text {
        color:#4d4d4d;
      }
      </style>
  </defs>
  <sodipodi:namedview
     id="base"
     pagecolor="#ffffff"
     bordercolor="#666666"
     borderopacity="1.0"
     inkscape:pageopacity="0.0"
     inkscape:pageshadow="2"
     inkscape:zoom="1"
     inkscape:cx="-140.5"
     inkscape:cy="15"
     inkscape:document-units="px"
     inkscape:current-layer="layer1"
     showgrid="false"
     fit-margin-top="0"
     fit-margin-left="0"
     fit-margin-right="0"
     fit-margin-bottom="0"
     units="px"
     inkscape:window-width="2560"
     inkscape:window-height="1373"
     inkscape:window-x="0"
     inkscape:window-y="30"
     inkscape:window-maximized="1"
     inkscape:showpageshadow="false"
     borderlayer="false"
     showborder="false"
     inkscape:pagecheckerboard="true">
    <inkscape:grid
       type="xygrid"
       id="grid4168"
       originx="0"
       originy="1.484375e-06" />
  </sodipodi:namedview>
  <metadata
     id="metadata4356">
    <rdf:RDF>
      <cc:Work
         rdf:about="">
        <dc:format>image/svg+xml</dc:format>
        <dc:type
           rdf:resource="http://purl.org/dc/dcmitype/StillImage" />
        <dc:title />
      </cc:Work>
    </rdf:RDF>
  </metadata>
  <g
     inkscape:label="Capa 1"
     inkscape:groupmode="layer"
     id="layer1"
     transform="translate(335,-416.79077)">
    <path
       style="opacity:1;vector-effect:none;fill:#212121;fill-opacity:1;stroke:none;stroke-width:1;stroke-linecap:butt;stroke-linejoin:miter;stroke-miterlimit:4;stroke-dasharray:none;stroke-dashoffset:0;stroke-opacity:1"
       d="M 133 1 L 133 13.689453 A 9.5 9.5 0 0 0 125.5 10 A 9.5 9.5 0 0 0 116.125 18 L 118.15234 18 A 7.5 7.5 0 0 1 125.5 12 A 7.5 7.5 0 0 1 132.83984 18 L 135 18 L 135 1 L 133 1 z M 28.5 10 A 9.5 9.5 0 0 0 19.125 18 L 21.152344 18 A 7.5 7.5 0 0 1 28.5 12 A 7.5 7.5 0 0 1 35.839844 18 L 37.869141 18 A 9.5 9.5 0 0 0 28.5 10 z M 48.5 10 A 9.5 9.5 0 0 0 39 19.5 A 9.5 9.5 0 0 0 48.5 29 A 9.5 9.5 0 0 0 58 19.5 A 9.5 9.5 0 0 0 48.5 10 z M 68.5 10 A 9.5 9.5 0 0 0 59 19.5 L 59 29 L 61 29 L 61 20 L 61 19.5 A 7.5 7.5 0 0 1 68.5 12 A 7.5 7.5 0 0 1 76 19.5 L 76 20 L 76 29 L 78 29 L 78 20 L 78 19.5 A 7.5 7.5 0 0 1 85.5 12 A 7.5 7.5 0 0 1 93 19.5 L 93 20 L 93 29 L 95 29 L 95 19.5 A 9.5 9.5 0 0 0 85.5 10 A 9.5 9.5 0 0 0 76.996094 15.273438 A 9.5 9.5 0 0 0 68.5 10 z M 105.5 10 A 9.5 9.5 0 0 0 96 19.5 A 9.5 9.5 0 0 0 105.5 29 A 9.5 9.5 0 0 0 113 25.324219 L 113 29 L 115 29 L 115 19.5 A 9.5 9.5 0 0 0 105.5 10 z M 48.5 12 A 7.5 7.5 0 0 1 56 19.5 A 7.5 7.5 0 0 1 48.5 27 A 7.5 7.5 0 0 1 41 19.5 A 7.5 7.5 0 0 1 48.5 12 z M 105.5 12 A 7.5 7.5 0 0 1 113 19.5 A 7.5 7.5 0 0 1 105.5 27 A 7.5 7.5 0 0 1 98 19.5 A 7.5 7.5 0 0 1 105.5 12 z M 13 19 C 12.446 19 12 19.446 12 20 C 12 20.554 12.446 21 13 21 L 30 21 C 30.554 21 31 20.554 31 20 C 31 19.446 30.554 19 30 19 L 13 19 z M 123.98438 19 C 123.43903 19 123 19.439031 123 19.984375 L 123 20.015625 C 123 20.560969 123.43903 21 123.98438 21 L 141.01562 21 C 141.56097 21 142 20.560969 142 20.015625 L 142 19.984375 C 142 19.439031 141.56097 19 141.01562 19 L 123.98438 19 z M 19 22 L 19 29 L 21 29 L 21 22 L 19 22 z M 36 22 L 36 29 L 38 29 L 38 22 L 36 22 z M 116.3457 22 A 9.5 9.5 0 0 0 125.5 29 A 9.5 9.5 0 0 0 134.66406 22 L 132.56055 22 A 7.5 7.5 0 0 1 125.5 27 A 7.5 7.5 0 0 1 118.4375 22 L 116.3457 22 z "
       transform="translate(-335,416.79077)"
       id="rect1501" />
  </g>
</svg>
