<?xml version="1.0" encoding="UTF-8" standalone="no"?>
<svg
   xmlns:dc="http://purl.org/dc/elements/1.1/"
   xmlns:cc="http://creativecommons.org/ns#"
   xmlns:rdf="http://www.w3.org/1999/02/22-rdf-syntax-ns#"
   xmlns:svg="http://www.w3.org/2000/svg"
   xmlns="http://www.w3.org/2000/svg"
   xmlns:sodipodi="http://sodipodi.sourceforge.net/DTD/sodipodi-0.dtd"
   xmlns:inkscape="http://www.inkscape.org/namespaces/inkscape"
   width="124"
   height="52"
   viewBox="0 0 32.808331 13.758333"
   id="svg2"
   version="1.1"
   inkscape:version="1.0.2 (e86c870879, 2021-01-15, custom)"
   sodipodi:docname="configuration-icons.svgz">
  <defs
     id="defs4">
    <style
       type="text/css"
       id="current-color-scheme">
      .ColorScheme-Text {
        color:#31363b;
        stop-color:#31363b;
      }
      .ColorScheme-Background {
        color:#eff0f1;
        stop-color:#eff0f1;
      }
      .ColorScheme-Highlight {
        color:#3daee9;
        stop-color:#3daee9;
      }
      .ColorScheme-ViewText {
        color:#31363b;
        stop-color:#31363b;
      }
      .ColorScheme-ViewBackground {
        color:#fcfcfc;
        stop-color:#fcfcfc;
      }
      .ColorScheme-ViewHover {
        color:#93cee9;
        stop-color:#93cee9;
      }
      .ColorScheme-ViewFocus{
        color:#3daee9;
        stop-color:#3daee9;
      }
      .ColorScheme-ButtonText {
        color:#31363b;
        stop-color:#31363b;
      }
      .ColorScheme-ButtonBackground {
        color:#eff0f1;
        stop-color:#eff0f1;
      }
      .ColorScheme-ButtonHover {
        color:#93cee9;
        stop-color:#93cee9;
      }
      .ColorScheme-ButtonFocus{
        color:#3daee9;
        stop-color:#3daee9;
      }
      </style>
    <inkscape:perspective
       id="perspective4146"
       inkscape:persp3d-origin="11.999999 : 7.9999997 : 1"
       inkscape:vp_z="23.999998 : 11.999999 : 1"
       inkscape:vp_y="0 : 999.99995 : 0"
       inkscape:vp_x="0 : 11.999999 : 1"
       sodipodi:type="inkscape:persp3d" />
    <inkscape:perspective
       id="perspective4090"
       inkscape:persp3d-origin="11.999999 : 7.9999997 : 1"
       inkscape:vp_z="23.999998 : 11.999999 : 1"
       inkscape:vp_y="0 : 999.99995 : 0"
       inkscape:vp_x="0 : 11.999999 : 1"
       sodipodi:type="inkscape:persp3d" />
  </defs>
  <sodipodi:namedview
     id="base"
     pagecolor="#ffffff"
     bordercolor="#c90303"
     borderopacity="1"
     inkscape:pageopacity="0"
     inkscape:pageshadow="2"
     inkscape:zoom="4"
     inkscape:cx="61.202224"
     inkscape:cy="57.331172"
     inkscape:document-units="px"
     inkscape:current-layer="layer1"
     showgrid="true"
     units="px"
     inkscape:showpageshadow="false"
     borderlayer="true"
     inkscape:window-width="1920"
     inkscape:window-height="955"
     inkscape:window-x="0"
     inkscape:window-y="30"
     inkscape:window-maximized="1"
     fit-margin-top="0"
     fit-margin-left="0"
     fit-margin-right="0"
     fit-margin-bottom="0"
     inkscape:document-rotation="0"
     showguides="true"
     inkscape:guide-bbox="true">
    <inkscape:grid
       type="xygrid"
       id="grid4160"
       empspacing="2"
       originx="0.52916665"
       originy="-33.866711" />
    <sodipodi:guide
       position="2.4294816e-09,13.758295"
       orientation="16.000015,0"
       id="guide4136"
       inkscape:locked="false" />
    <sodipodi:guide
       position="2.4294816e-09,9.524957"
       orientation="0,16"
       id="guide4138"
       inkscape:locked="false" />
    <sodipodi:guide
       position="4.2333331,9.524957"
       orientation="-16.000015,0"
       id="guide4140"
       inkscape:locked="false" />
    <sodipodi:guide
       position="4.2333331,13.758295"
       orientation="0,-16"
       id="guide4142"
       inkscape:locked="false" />
    <sodipodi:guide
       position="7.4083328,4.2333792"
       orientation="0,-1"
       id="guide987" />
  </sodipodi:namedview>
  <metadata
     id="metadata7">
    <rdf:RDF>
      <cc:Work
         rdf:about="">
        <dc:format>image/svg+xml</dc:format>
        <dc:type
           rdf:resource="http://purl.org/dc/dcmitype/StillImage" />
        <dc:title />
      </cc:Work>
    </rdf:RDF>
  </metadata>
  <g
     inkscape:label="Capa 1"
     inkscape:groupmode="layer"
     id="layer1"
     transform="translate(0.5291667,-249.37493)">
    <g
       id="configure"
       transform="matrix(0.26458332,0,0,0.26458332,-4.2333331,38.670782)">
      <rect
         ry="0"
         y="796.362"
         x="32"
         height="16"
         width="16"
         id="configure-icon-size"
         style="opacity:0.5;fill:none;fill-opacity:1;stroke:none;stroke-width:2;stroke-linecap:butt;stroke-linejoin:bevel;stroke-miterlimit:4;stroke-dasharray:none;stroke-opacity:1" />
      <rect
         style="opacity:0.5;fill:none;fill-opacity:1;stroke:none;stroke-width:2;stroke-linecap:butt;stroke-linejoin:bevel;stroke-miterlimit:4;stroke-dasharray:none;stroke-opacity:1"
         id="configure-icon-area"
         width="14"
         height="14"
         x="33"
         y="797.362"
         ry="0" />
      <path
         inkscape:connector-curvature="0"
         id="configure-icon"
         transform="translate(0,796.362)"
         d="m 35,1 c -1.10801,0 -2,0.8919898 -2,2 v 2 c 0,1.1080102 0.89199,2 2,2 h 2 c 1.10801,0 2,-0.8919898 2,-2 V 3 C 39,1.8919898 38.10801,1 37,1 Z m 8.583984,0 c -0.511236,0 -1.022321,0.1961506 -1.414062,0.5878906 l -1.414063,1.4140625 c -0.783482,0.78348 -0.783482,2.044645 0,2.828125 l 1.414063,1.4140625 c 0.783482,0.78348 2.044643,0.78348 2.828125,0 l 1.414062,-1.4140625 c 0.783482,-0.78348 0.783482,-2.044645 0,-2.828125 L 44.998047,1.5878906 C 44.606306,1.1961506 44.095221,1 43.583984,1 Z M 35,2 h 2 c 0.55401,0 1,0.4459898 1,1 v 2 c 0,0.5540102 -0.44599,1 -1,1 H 35 C 34.44599,6 34,5.5540102 34,5 V 3 c 0,-0.5540102 0.44599,-1 1,-1 z m 8.583984,0.00195 c 0.255618,0 0.51116,0.097099 0.707032,0.2929688 l 1.414062,1.4140625 c 0.391745,0.39175 0.391745,1.0223125 0,1.4140625 l -1.414062,1.4140625 c -0.391744,0.39174 -1.022319,0.39174 -1.414063,0 L 41.462891,5.1230469 c -0.391745,-0.39175 -0.391745,-1.0223125 0,-1.4140625 l 1.414062,-1.4140625 c 0.195872,-0.19587 0.451414,-0.2929688 0.707031,-0.2929688 z M 35,9 c -1.10801,0 -2,0.89199 -2,2 v 2 c 0,1.10801 0.89199,2 2,2 h 2 c 1.10801,0 2,-0.89199 2,-2 V 11 C 39,9.89199 38.10801,9 37,9 Z m 0,1 h 2 c 0.55401,0 1,0.44599 1,1 v 2 c 0,0.55401 -0.44599,1 -1,1 h -2 c -0.55401,0 -1,-0.44599 -1,-1 v -2 c 0,-0.55401 0.44599,-1 1,-1 z m 6,1 a 1,1 0 0 0 -1,1 1,1 0 0 0 1,1 1,1 0 0 0 1,-1 1,1 0 0 0 -1,-1 z m 3,0 a 1,1 0 0 0 -1,1 1,1 0 0 0 1,1 1,1 0 0 0 1,-1 1,1 0 0 0 -1,-1 z m 3,0 a 1,1 0 0 0 -1,1 1,1 0 0 0 1,1 1,1 0 0 0 1,-1 1,1 0 0 0 -1,-1 z"
         class="ColorScheme-Text"
         style="fill:currentColor;fill-opacity:1;stroke:none" />
    </g>
    <g
       id="menu">
      <rect
         y="249.37497"
         x="-0.52916771"
         height="4.2333322"
         width="4.2333336"
         id="rect4152"
         style="opacity:1;fill:none;fill-opacity:1;stroke:none" />
      <rect
         style="opacity:1;fill:none;fill-opacity:1;stroke:none"
         id="rect4154"
         width="3.1750002"
         height="3.1749992"
         x="-1.0174132e-06"
         y="249.90414" />
      <path
         id="rect4167"
         d="m 4.5328302e-8,250.16875 v 0.52917 H 3.1750002 v -0.52917 z m 0,1.05833 v 0.52917 H 3.1750002 v -0.52917 z m 0,1.05834 v 0.52916 H 3.1750002 v -0.52916 z"
         style="opacity:1;fill:currentColor;fill-opacity:1;stroke:none;stroke-opacity:1"
         inkscape:connector-curvature="0"
         class="ColorScheme-Text" />
    </g>
    <g
       id="move">
      <rect
         style="opacity:1;fill:none;fill-opacity:1;stroke:none"
         id="rect4213"
         width="4.2333336"
         height="4.2333322"
         x="13.758335"
         y="249.37497" />
      <rect
         y="249.90414"
         x="14.287501"
         height="3.1749992"
         width="3.1750002"
         id="rect4215"
         style="opacity:1;fill:none;fill-opacity:1;stroke:none" />
      <path
         id="path4404"
         d="m 15.875001,249.90414 -0.529166,0.79375 h 1.058333 z m -0.79375,1.05833 -0.79375,0.52917 0.79375,0.52916 z m 1.5875,0 v 1.05833 l 0.79375,-0.52916 z m -0.79375,0.26458 c -0.146125,0 -0.264583,0.11846 -0.264583,0.26459 0,0.14612 0.118458,0.26458 0.264583,0.26458 0.146126,0 0.264584,-0.11846 0.264584,-0.26458 0,-0.14613 -0.118458,-0.26459 -0.264584,-0.26459 z m -0.529166,1.05834 0.529166,0.79375 0.529167,-0.79375 z"
         style="fill:currentColor;fill-opacity:1;stroke:none"
         inkscape:connector-curvature="0"
         class="ColorScheme-Text" />
    </g>
    <g
       id="size-vertical">
      <rect
         y="249.37497"
         x="18.520834"
         height="4.2333322"
         width="4.2333336"
         id="rect4257"
         style="opacity:1;fill:none;fill-opacity:1;stroke:none" />
      <rect
         style="opacity:1;fill:none;fill-opacity:1;stroke:none"
         id="rect4259"
         width="3.1750002"
         height="3.1749992"
         x="19.050001"
         y="249.90414" />
      <path
         sodipodi:nodetypes="ccccssssscccc"
         inkscape:connector-curvature="0"
         style="fill:currentColor;fill-opacity:1;stroke:none"
         d="m 20.637501,249.90414 -0.529166,0.79375 h 1.058333 z m 0,1.32291 c -0.146125,0 -0.264583,0.11846 -0.264583,0.26459 0,0.14612 0.118458,0.26458 0.264583,0.26458 0.146126,0 0.264584,-0.11846 0.264584,-0.26458 0,-0.14613 -0.118458,-0.26459 -0.264584,-0.26459 z m -0.529166,1.05834 0.529166,0.79375 0.529167,-0.79375 z"
         id="path4263"
         class="ColorScheme-Text" />
    </g>
    <g
       id="size-horizontal">
      <rect
         style="opacity:1;fill:none;fill-opacity:1;stroke:none"
         id="rect4265"
         width="4.2333336"
         height="4.2333322"
         x="23.283333"
         y="249.37497" />
      <rect
         y="249.90414"
         x="23.8125"
         height="3.1749992"
         width="3.1750002"
         id="rect4267"
         style="opacity:1;fill:none;fill-opacity:1;stroke:none" />
      <path
         id="path4269"
         d="m 26.987502,251.49164 -0.79375,-0.52917 v 1.05834 z m -1.32291,0 c 0,-0.14613 -0.11846,-0.26458 -0.26459,-0.26458 -0.14612,0 -0.26458,0.11845 -0.26458,0.26458 0,0.14613 0.11846,0.26458 0.26458,0.26458 0.14613,0 0.26459,-0.11845 0.26459,-0.26458 z m -1.05834,-0.52917 -0.79375,0.52917 0.79375,0.52917 z"
         style="fill:currentColor;fill-opacity:1;stroke:none"
         inkscape:connector-curvature="0"
         sodipodi:nodetypes="ccccssssscccc"
         class="ColorScheme-Text" />
    </g>
    <g
       id="size-diagonal-tl2br">
      <rect
         style="opacity:1;fill:none;fill-opacity:1;stroke:none"
         id="rect4308"
         width="4.2333336"
         height="4.2333322"
         x="-0.52916676"
         y="254.13741" />
      <rect
         y="254.66658"
         x="8.4756147e-07"
         height="3.1749992"
         width="3.1750002"
         id="rect4310"
         style="opacity:1;fill:none;fill-opacity:1;stroke:none" />
      <path
         style="fill:currentColor;fill-opacity:1;stroke:none"
         d="m 2.3812496,257.84168 v -0.26458 h 0.6066819 l -0.8712649,-0.87127 0.187068,-0.18706 0.8712649,0.87126 v -0.60668 h 0.264584 v 1.05833 h -0.264584 z"
         id="path4312"
         inkscape:connector-curvature="0"
         class="ColorScheme-Text" />
      <path
         style="fill:currentColor;fill-opacity:1;stroke:none"
         d="m 3.4395835,254.66667 v 0.26459 0.26458 0.79375 0.26458 h -0.264584 v -0.26458 -0.79375 -0.26458 H 2.9104166 1.8520836 1.3229166 v -0.26459 h 0.529167 1.058333 0.2645829 z M -4e-7,256.25417 v 0.26459 0.79375 0.26458 h 0.529167 0.79375 0.529167 v 0.26458 H 1.3229166 0.5291666 -4e-7 -0.2645834 v -0.52916 -0.79375 -0.26459 z"
         id="path4314"
         inkscape:connector-curvature="0"
         class="ColorScheme-Text" />
      <path
         inkscape:connector-curvature="0"
         id="path4316"
         d="m 0.7937506,254.66668 v 0.26458 h -0.606682 l 0.871265,0.87127 -0.187068,0.18706 L 6e-7,255.11833 v 0.60668 h -0.264584 v -1.05833 H 6e-7 Z"
         style="fill:currentColor;fill-opacity:1;stroke:none"
         class="ColorScheme-Text" />
    </g>
    <g
       id="maximize">
      <rect
         y="254.13741"
         x="4.2333331"
         height="4.2333322"
         width="4.2333336"
         id="rect4318"
         style="opacity:1;fill:none;fill-opacity:1;stroke:none" />
      <rect
         style="opacity:1;fill:none;fill-opacity:1;stroke:none"
         id="rect4320"
         width="3.1750002"
         height="3.1749992"
         x="4.7625008"
         y="254.66658" />
      <path
         inkscape:connector-curvature="0"
         id="path4322"
         d="m 7.1437499,254.66667 v 0.26458 h 0.6066819 l -0.8712649,0.87127 0.187068,0.18706 0.8712649,-0.87126 v 0.60668 h 0.264584 v -1.05833 h -0.264584 z"
         style="fill:currentColor;fill-opacity:1;stroke:none"
         class="ColorScheme-Text" />
      <path
         id="path4324"
         transform="matrix(0.26458333,0,0,0.26458334,-0.52916771,249.37497)"
         d="m 19,20 v 2 3 1 5 1 h 1 5 2 4 1 1 v -1 -1 -3 -1 h -1 v 1 3 1 h -1 -4 -2 -5 v -5 -1 -3 -1 h 2 3 2 v -1 h -2 -3 -2 z"
         style="fill:currentColor;fill-opacity:1;stroke:none"
         inkscape:connector-curvature="0"
         class="ColorScheme-Text" />
    </g>
    <g
       id="unmaximize">
      <rect
         style="opacity:1;fill:none;fill-opacity:1;stroke:none"
         id="rect4333"
         width="4.2333336"
         height="4.2333322"
         x="8.9958324"
         y="254.13741" />
      <rect
         y="254.66658"
         x="9.5249996"
         height="3.1749992"
         width="3.1750002"
         id="rect4335"
         style="opacity:1;fill:none;fill-opacity:1;stroke:none" />
      <path
         style="fill:currentColor;fill-opacity:1;stroke:none"
         d="M 12.700003,255.98958 V 255.725 h -0.606682 l 0.871265,-0.87127 -0.187068,-0.18706 -0.871266,0.87126 v -0.60668 h -0.264584 v 1.05833 h 0.264584 z"
         id="path4337"
         inkscape:connector-curvature="0"
         class="ColorScheme-Text" />
      <path
         inkscape:connector-curvature="0"
         style="fill:currentColor;fill-opacity:1;stroke:none"
         d="m 9.2604158,254.66664 v 0.52916 0.79375 0.26459 1.32291 0.26459 h 0.2645833 1.3229169 0.529167 1.058334 0.264584 0.264583 v -0.26459 -0.26458 -0.79375 -0.26458 h -0.264583 v 0.26458 0.79375 0.26458 H 12.435417 11.377083 10.847916 9.5249991 v -1.32291 -0.26459 -0.79375 -0.26458 h 0.5291669 0.79375 0.529167 v -0.26458 h -0.529167 -0.79375 -0.5291669 z"
         id="path4339"
         class="ColorScheme-Text" />
    </g>
    <g
       id="status">
      <rect
         y="254.13741"
         x="13.758333"
         height="4.2333322"
         width="4.2333336"
         id="rect4341"
         style="opacity:1;fill:none;fill-opacity:1;stroke:none" />
      <rect
         style="opacity:1;fill:none;fill-opacity:1;stroke:none"
         id="rect4343"
         width="3.1750002"
         height="3.1749992"
         x="14.2875"
         y="254.66658" />
      <g
         inkscape:label="Capa 1"
         id="layer1-70"
         transform="matrix(0.26458333,0,0,0.26458334,-97.820237,113.43444)">
        <path
           sodipodi:nodetypes="cccccccccccccccccccccccccccccccc"
           inkscape:connector-curvature="0"
           id="rect4083"
           transform="translate(367.71428,513.79097)"
           d="m 56,20 v 3 3 1 5 H 57 60.970703 68 V 31 21 20 H 63.148438 57 Z m 1,3 h 7.345703 L 62.628906,29.408203 60.662109,26 H 60.369141 57.505859 57 Z m 8.382812,0 H 67 v 8 H 63.238281 Z M 57,27 h 3.083984 l 2.308594,4 H 57 Z"
           style="fill:currentColor;fill-opacity:1;stroke:none"
           class="ColorScheme-Text" />
      </g>
    </g>
    <g
       id="collapse">
      <rect
         y="254.13741"
         x="23.283337"
         height="4.2333322"
         width="4.2333336"
         id="rect4397"
         style="opacity:1;fill:none;fill-opacity:1;stroke:none" />
      <rect
         style="opacity:1;fill:none;fill-opacity:1;stroke:none"
         id="rect4399"
         width="3.1750002"
         height="3.1749992"
         x="23.812504"
         y="254.66658" />
      <path
         inkscape:connector-curvature="0"
         style="opacity:1;fill:currentColor;fill-opacity:1;stroke:none"
         d="m 24.870835,254.66664 0.529166,0.52916 0.529167,-0.52916 z m -1.058334,1.32291 v 0.52917 h 3.175 v -0.52917 z m 1.5875,1.32292 -0.529166,0.52917 h 1.058333 z"
         id="path4401"
         class="ColorScheme-Text" />
    </g>
    <g
       id="return-to-source">
      <rect
         style="opacity:1;fill:none;fill-opacity:1;stroke:none"
         id="rect4380"
         width="4.2333336"
         height="4.2333322"
         x="18.520832"
         y="254.13741" />
      <rect
         y="254.66658"
         x="19.049999"
         height="3.1749992"
         width="3.1750002"
         id="rect4382"
         style="opacity:1;fill:none;fill-opacity:1;stroke:none" />
      <path
         id="rect4403"
         transform="matrix(0.26458333,0,0,0.26458334,-0.52916771,249.37497)"
         d="M 74,20 V 32 H 86 V 20 Z m 4,1 h 4 l -2,2 z m -3,4 h 10 v 2 H 75 Z m 5,4 2,2 h -4 z"
         style="opacity:1;fill:currentColor;fill-opacity:1;stroke:none"
         inkscape:connector-curvature="0"
         class="ColorScheme-Text" />
    </g>
    <g
       id="restore">
      <rect
         style="opacity:1;fill:none;fill-opacity:1;stroke:none"
         id="rect4414"
         width="4.2333336"
         height="4.2333322"
         x="28.045841"
         y="254.13741" />
      <rect
         y="254.66658"
         x="28.575008"
         height="3.1749992"
         width="3.1750002"
         id="rect4416"
         style="opacity:1;fill:none;fill-opacity:1;stroke:none" />
      <path
         sodipodi:nodetypes="ccccccccccccc"
         id="path4418"
         d="m 29.633338,255.1958 0.529166,-0.52916 0.529167,0.52916 z m -1.058334,0.79375 v 0.52917 h 3.175 v -0.52917 z m 1.5875,1.85209 -0.529166,-0.52917 h 1.058333 z"
         style="opacity:1;fill:currentColor;fill-opacity:1;stroke:none"
         inkscape:connector-curvature="0"
         class="ColorScheme-Text" />
    </g>
    <g
       id="help">
      <rect
         y="258.89993"
         x="-0.52916676"
         height="4.2333322"
         width="4.2333336"
         id="rect4420"
         style="opacity:1;fill:none;fill-opacity:1;stroke:none" />
      <rect
         style="opacity:1;fill:none;fill-opacity:1;stroke:none"
         id="rect4422"
         width="3.1750002"
         height="3.1749992"
         x="8.4756147e-07"
         y="259.42911" />
      <path
         inkscape:connector-curvature="0"
         style="opacity:1;fill:currentColor;fill-opacity:1;stroke:none;stroke-opacity:1"
         d="M 1.5875009,259.42911 A 1.5875,1.5875001 0 0 0 9.929289e-7,261.01661 1.5875,1.5875001 0 0 0 1.5875009,262.60411 a 1.5875,1.5875001 0 0 0 1.5875,-1.5875 1.5875,1.5875001 0 0 0 -1.5875,-1.5875 z M 9.929289e-7,259.69369 v 0.52917 L 0.52916759,259.69369 Z m 1.5874999070711,0 a 1.3229166,1.3229167 0 0 1 0.6325195,0.16123 l -0.4025594,0.40256 a 0.79374998,0.79375003 0 0 0 -0.2299601,-0.0346 0.79374998,0.79375003 0 0 0 -0.2299601,0.0346 l -0.40152591,-0.40153 a 1.3229166,1.3229167 0 0 1 0.63148601,-0.16226 z m 1.0583333,0 0.5291667,0.52917 v -0.52917 z m -2.22001941,0.6904 0.4025594,0.40256 a 0.79374998,0.79375003 0 0 0 -0.034623,0.22996 0.79374998,0.79375003 0 0 0 0.034623,0.22996 l -0.4015259,0.40152 a 1.3229166,1.3229167 0 0 1 -0.162264,-0.63148 1.3229166,1.3229167 0 0 1 0.1612305,-0.63252 z m 2.32233881,10e-4 a 1.3229166,1.3229167 0 0 1 0.1622639,0.63149 1.3229166,1.3229167 0 0 1 -0.1612304,0.63252 l -0.4025593,-0.40253 a 0.79374998,0.79375003 0 0 0 0.034623,-0.22996 0.79374998,0.79375003 0 0 0 -0.034623,-0.22996 l 0.4015258,-0.40153 z m -1.1606527,0.10232 a 0.52916665,0.52916669 0 0 1 0.5291667,0.52917 0.52916665,0.52916669 0 0 1 -0.5291667,0.52916 0.52916665,0.52916669 0 0 1 -0.5291667,-0.52916 0.52916665,0.52916669 0 0 1 0.5291667,-0.52917 z m -0.2299601,1.28829 a 0.79374998,0.79375003 0 0 0 0.2299601,0.0346 0.79374998,0.79375003 0 0 0 0.2299601,-0.0346 l 0.4015259,0.40153 a 1.3229166,1.3229167 0 0 1 -0.631486,0.16226 1.3229166,1.3229167 0 0 1 -0.63251951,-0.16123 z M 9.929289e-7,261.8103 v 0.52916 H 0.52916759 Z m 3.1749999070711,0 -0.5291667,0.52916 h 0.5291667 z"
         id="path59"
         class="ColorScheme-Text" />
    </g>
    <g
       id="add">
      <rect
         y="258.89993"
         x="8.9958324"
         height="4.2333322"
         width="4.2333336"
         id="rect4488"
         style="opacity:1;fill:none;fill-opacity:1;stroke:none" />
      <rect
         style="opacity:1;fill:none;fill-opacity:1;stroke:none"
         id="rect4490"
         width="3.1750002"
         height="3.1749992"
         x="9.5249996"
         y="259.42911" />
      <path
         style="opacity:1;fill:currentColor;fill-opacity:1;stroke:none"
         d="m 43,38 v 5 h -5 v 2 h 5 v 5 h 2 v -5 h 5 v -2 h -5 v -5 z"
         transform="matrix(0.26458333,0,0,0.26458333,-0.52916771,249.37493)"
         id="rect4498"
         class="ColorScheme-Text" />
    </g>
    <g
       id="remove">
      <rect
         style="opacity:1;fill:none;fill-opacity:1;stroke:none"
         id="rect4502"
         width="4.2333336"
         height="4.2333322"
         x="13.758328"
         y="258.89993" />
      <rect
         y="259.42911"
         x="14.287497"
         height="3.1749992"
         width="3.1750002"
         id="rect4504"
         style="opacity:1;fill:none;fill-opacity:1;stroke:none" />
      <rect
         y="-17.462498"
         x="260.75204"
         height="3.175"
         width="0.5291667"
         id="rect4508"
         style="opacity:1;fill:currentColor;fill-opacity:1;stroke:none"
         transform="rotate(90)"
         class="ColorScheme-Text" />
    </g>
    <g
       id="filter">
      <rect
         y="258.89993"
         x="18.520828"
         height="4.2333322"
         width="4.2333336"
         id="rect4527"
         style="opacity:1;fill:none;fill-opacity:1;stroke:none" />
      <rect
         style="opacity:1;fill:none;fill-opacity:1;stroke:none"
         id="rect4529"
         width="3.1750002"
         height="3.1749992"
         x="19.049997"
         y="259.42911" />
      <path
         id="path4545"
         transform="matrix(0.26458333,0,0,0.26458334,-0.52916771,249.37497)"
         d="m 76,38 -1,1 v 1 l 3,5.259766 V 48 48.002 l 3,1.996094 v 0.002 h 1 V 49.461032 45.25986 L 85,40 v -1 l -1,-1 z m 0,1 h 8 v 0.734375 l -3,5.263672 v 0.002 1 2.794922 L 79,47.464844 V 45 44.998 l -3,-5.263672 z m 1,1 2,2 v -1 l 1,-1 z"
         style="fill:currentColor;fill-opacity:1;fill-rule:evenodd;stroke:none;stroke-width:0.264583px;stroke-linecap:butt;stroke-linejoin:miter;stroke-opacity:1"
         inkscape:connector-curvature="0"
         class="ColorScheme-Text" />
    </g>
    <g
       id="showbackground">
      <g
         id="g942">
        <rect
           class="ColorScheme-Background"
           ry="0.12427091"
           y="259.69373"
           x="28.574997"
           height="2.6458437"
           width="2.6458342"
           id="rect929"
           style="opacity:0.8;fill:currentColor" />
        <rect
           y="258.89993"
           x="27.858765"
           height="4.2333322"
           width="4.2333336"
           id="rect908"
           style="opacity:1;fill:none;fill-opacity:1;stroke:none" />
        <path
           inkscape:connector-curvature="0"
           class="ColorScheme-Text"
           style="opacity:0.4;fill:currentColor"
           d="m 110,38 c -0.55407,0 -1,0.445928 -1,1 v 10 c 0,0.554072 0.44593,1 1,1 h 10 c 0.55407,0 1,-0.445928 1,-1 V 39 c 0,-0.554072 -0.44593,-1 -1,-1 z m 0.46875,1 h 9.0625 C 119.79146,39 120,39.210497 120,39.470703 V 48.53125 C 120,48.791456 119.79146,49 119.53125,49 h -9.0625 C 110.20854,49 110,48.791456 110,48.53125 V 39.470703 C 110,39.210497 110.20854,39 110.46875,39 Z"
           transform="matrix(0.26458332,0,0,0.26458332,-0.5291667,249.37493)"
           id="rect910" />
        <g
           aria-label="a"
           transform="scale(0.92487808,1.0812236)"
           style="font-style:normal;font-variant:normal;font-weight:normal;font-stretch:normal;font-size:2.64862px;line-height:125%;font-family:'Noto Sans';-inkscape-font-specification:'Noto Sans';letter-spacing:0px;word-spacing:0px;fill:#000000;fill-opacity:1;stroke:none;stroke-width:0.264583px;stroke-linecap:butt;stroke-linejoin:miter;stroke-opacity:1"
           id="text927">
          <path
             class="ColorScheme-Text"
             d="m 32.390856,240.67151 c 0.173043,0 0.30106,0.038 0.38405,0.11389 0.08299,0.0759 0.124486,0.19688 0.124486,0.36286 v 0.99379 H 32.72988 l -0.04503,-0.22834 h -0.01059 c -0.0618,0.0777 -0.127133,0.13508 -0.195998,0.17216 -0.06886,0.0371 -0.162449,0.0556 -0.280754,0.0556 -0.1289,0 -0.235727,-0.0335 -0.320483,-0.10065 -0.08476,-0.0689 -0.122393,-0.17569 -0.122393,-0.32048 0,-0.14126 0.05088,-0.28618 0.162122,-0.3621 0.111242,-0.0777 0.282519,-0.11816 0.513833,-0.12522 l 0.241024,-0.008 v -0.0504 c 0,-0.11831 -0.0256,-0.20042 -0.07681,-0.24633 -0.05121,-0.0459 -0.123603,-0.0689 -0.217187,-0.0689 -0.07416,0 -0.144791,0.0115 -0.211889,0.0344 -0.0671,0.0212 -0.129783,0.0459 -0.188052,0.0742 l -0.07151,-0.17481 c 0.0618,-0.0335 0.135078,-0.0618 0.219835,-0.0848 0.08476,-0.0247 0.173043,-0.0371 0.264862,-0.0371 z m 0.278106,0.73618 -0.209242,0.008 c -0.176575,0.007 -0.299294,0.0334 -0.368158,0.0829 -0.0671,0.0495 -0.100647,0.1345 -0.100647,0.22453 0,0.0795 0.02384,0.13773 0.07151,0.17481 0.04944,0.0371 0.112124,0.0556 0.188052,0.0556 0.118305,0 0.217187,-0.0327 0.296646,-0.098 0.08122,-0.0671 0.121837,-0.16951 0.121837,-0.30724 z"
             style="fill:currentColor"
             id="path934"
             inkscape:connector-curvature="0"
             sodipodi:nodetypes="ccscccccscscccscscccccccccscsccc" />
        </g>
      </g>
    </g>
    <g
       id="rotate"
       transform="matrix(0.26458332,0,0,0.26458332,5.0270831,38.670828)">
      <rect
         ry="0"
         y="796.362"
         x="16"
         height="16"
         width="16"
         id="rotate-icon-size"
         style="opacity:0.5;fill:none;fill-opacity:1;stroke:none;stroke-width:2;stroke-linecap:butt;stroke-linejoin:bevel;stroke-miterlimit:4;stroke-dasharray:none;stroke-opacity:1" />
      <rect
         style="opacity:0.5;fill:none;fill-opacity:1;stroke:none;stroke-width:2;stroke-linecap:butt;stroke-linejoin:bevel;stroke-miterlimit:4;stroke-dasharray:none;stroke-opacity:1"
         id="rotate-icon-area"
         width="14"
         height="14"
         x="17"
         y="797.362"
         ry="0" />
      <path
         inkscape:connector-curvature="0"
         class="ColorScheme-Text"
         style="fill:currentColor;fill-opacity:1;stroke:none"
         d="m 19,1 c -1.10801,0 -2,0.8919898 -2,2 v 10 c 0,1.10801 0.89199,2 2,2 h 1 c 1.10801,0 2,-0.89199 2,-2 V 3 C 22,1.8919898 21.10801,1 20,1 Z m 6.484375,0 c -0.126893,0.004 -0.247689,0.055241 -0.337891,0.1445312 l -2,2 c -0.195183,0.1952501 -0.195183,0.5117913 0,0.7070313 l 2,2.0019531 C 25.461479,6.1682756 25.999821,5.94534 26,5.5 V 4 a 4,4 0 0 1 4,4 V 8.5 C 30,8.777 30.223,9 30.5,9 30.777,9 31,8.777 31,8.5 V 8 A 5,5 0 0 0 26,3 V 1.5 1.49805 C 25.99901,1.2164869 25.765822,0.99123 25.484375,1 Z M 19,2 h 1 c 0.55401,0 1,0.4459898 1,1 v 10 c 0,0.55401 -0.44599,1 -1,1 h -1 c -0.55401,0 -1,-0.44599 -1,-1 V 3 c 0,-0.5540102 0.44599,-1 1,-1 z m 4,8 v 1 3 1 h 6 c 1.10801,0 2,-0.89199 2,-2 v -1 c 0,-1.10801 -0.89199,-2 -2,-2 h -5 z m 1,1 h 5 c 0.55401,0 1,0.44599 1,1 v 1 c 0,0.55401 -0.44599,1 -1,1 h -5 z"
         transform="translate(0,796.362)"
         id="rotate-icon" />
    </g>
    <g
       id="size-diagonal-tr2bl"
       transform="matrix(0.26458332,0,0,0.26458332,28.045832,38.670828)">
      <rect
         x="0"
         style="opacity:0.5;fill:none;fill-opacity:1;stroke:none;stroke-width:2;stroke-linecap:butt;stroke-linejoin:bevel;stroke-miterlimit:4;stroke-dasharray:none;stroke-opacity:1"
         id="resize-icon-size"
         width="16"
         height="16"
         y="796.362"
         ry="0" />
      <rect
         ry="0"
         y="797.362"
         x="1"
         height="14"
         width="14"
         id="resize-icon-area"
         style="opacity:0.5;fill:none;fill-opacity:1;stroke:none;stroke-width:2;stroke-linecap:butt;stroke-linejoin:bevel;stroke-miterlimit:4;stroke-dasharray:none;stroke-opacity:1" />
      <path
         inkscape:connector-curvature="0"
         class="ColorScheme-Text"
         style="fill:currentColor;fill-opacity:1;stroke:none"
         d="M 11.5,1 C 11.223,1 11,1.223 11,1.5 11,1.777 11.223,2 11.5,2 h 1.792969 L 9.9042969,5.3886719 c -0.1958686,0.1958686 -0.1958686,0.5111626 0,0.7070312 0.1958681,0.1958686 0.5111631,0.1958686 0.7070311,0 L 14,2.7070312 V 4.5 C 14,4.777 14.223,5 14.5,5 14.777,5 15,4.777 15,4.5 v -3 C 15,1.3615 14.943891,1.2368594 14.853516,1.1464844 14.763141,1.0561094 14.6385,1 14.5,1 Z M 5.7421875,9.7578125 c -0.1277909,0 -0.2555816,0.048549 -0.3535156,0.1464844 L 2,13.292969 V 11.5 C 2,11.223 1.777,11 1.5,11 1.2230004,11 1,11.223 1,11.5 v 3 c 0,0.1385 0.05611,0.263146 0.1464844,0.353516 C 1.2368644,14.943916 1.3615,15 1.5,15 h 3 C 4.777,15 5,14.777 5,14.5 5,14.223 4.777,14 4.5,14 H 2.7070312 l 3.3886719,-3.388672 c 0.195868,-0.19587 0.195868,-0.511161 0,-0.7070311 C 5.9977686,9.8063619 5.8699784,9.7578125 5.7421875,9.7578125 Z"
         transform="translate(0,796.362)"
         id="resize-icon" />
    </g>
    <g
       transform="matrix(0.26458332,0,0,0.26458332,-8.4666663,48.195782)"
       id="delete">
      <rect
         style="opacity:0.5;fill:none;fill-opacity:1;stroke:none;stroke-width:2;stroke-linecap:butt;stroke-linejoin:bevel;stroke-miterlimit:4;stroke-dasharray:none;stroke-opacity:1"
         id="rect846"
         width="16"
         height="16"
         x="48"
         y="796.362"
         ry="0" />
      <rect
         ry="0"
         y="797.362"
         x="49"
         height="14"
         width="14"
         id="rect848"
         style="opacity:0.5;fill:none;fill-opacity:1;stroke:none;stroke-width:2;stroke-linecap:butt;stroke-linejoin:bevel;stroke-miterlimit:4;stroke-dasharray:none;stroke-opacity:1" />
      <path
         style="fill:currentColor;fill-opacity:1;stroke:none"
         class="ColorScheme-Text"
         d="m 56,1 c -1.108,0 -2,0.892 -2,2 h -4 v 1 h 4 1 2 1 4 V 3 H 58 C 58,1.892 57.108,1 56,1 Z m 0,1 c 0.554,0 1,0.446 1,1 H 55 C 55,2.446 55.446,2 56,2 Z M 51,5 V 5.5 6 8.5 13 c 0,1.10801 0.89199,2 2,2 h 6 c 1.10801,0 2,-0.89199 2,-2 V 8 6 5.5 5 H 60.5 54 53 51.5 Z m 1,1 h 1 v 7 h 1 V 6 h 6 V 8.5 13 c 0,0.55401 -0.44599,1 -1,1 h -6 c -0.55401,0 -1,-0.44599 -1,-1 V 8 Z m 3,1 v 6 h 1 V 7 Z"
         transform="translate(0,796.362)"
         id="path850"
         inkscape:connector-curvature="0" />
    </g>
    <g
       id="close"
       transform="matrix(0.26458332,0,0,0.26458332,10.583333,258.89993)">
      <rect
         ry="0"
         y="-4.7683716e-07"
         x="48"
         height="16"
         width="16"
         id="close-icon-size"
         style="opacity:0.5;fill:none;fill-opacity:1;stroke:none;stroke-width:2;stroke-linecap:butt;stroke-linejoin:bevel;stroke-miterlimit:4;stroke-dasharray:none;stroke-opacity:1" />
      <g
         inkscape:label="Capa 1"
         id="layer1-3"
         transform="translate(44.999998,-1033.3646)">
        <path
           inkscape:connector-curvature="0"
           style="fill:currentColor;fill-opacity:1;stroke:none"
           class="ColorScheme-Text"
           d="M 5.9902344,4.9902344 A 1.0001,1.0001 0 0 0 5.2929688,6.7070312 L 9.5859375,11 5.2929688,15.292969 a 1.0001,1.0001 0 1 0 1.4140624,1.414062 L 11,12.414062 l 4.292969,4.292969 a 1.0001,1.0001 0 1 0 1.414062,-1.414062 L 12.414062,11 16.707031,6.7070312 a 1.0001,1.0001 0 0 0 -0.726562,-1.7148437 1.0001,1.0001 0 0 0 -0.6875,0.3007813 L 11,9.5859375 6.7070312,5.2929688 A 1.0001,1.0001 0 0 0 5.9902344,4.9902344 Z"
           transform="translate(0,1030.3622)"
           id="path3201" />
      </g>
    </g>
  </g>
</svg>
